<svg width="81" height="64" viewBox="0 0 81 64" fill="none" xmlns="http://www.w3.org/2000/svg">
<g id="Group 2.1">
<g id="Group">
<g id="Group 3">
<g id="Group 4">
<path id="Rectangle 15" fill-rule="evenodd" clip-rule="evenodd" d="M27.6297 21.2455C25.5 22.426 24.749 25.0922 25.9258 27.2153L36.5367 46.358C37.7147 48.483 40.3845 49.2505 42.5024 48.0766L76.9961 28.9564C79.1257 27.7759 79.8768 25.1096 78.6999 22.9865L68.089 3.84392C66.9111 1.7189 64.2412 0.951355 62.1233 2.12531L27.6297 21.2455ZM39.0921 44.9415L28.4812 25.7989C28.0829 25.0803 28.3344 24.1953 29.0461 23.8008L63.5398 4.68065C64.2458 4.28929 65.1377 4.54607 65.5336 5.26037L76.1446 24.403C76.5429 25.1215 76.2913 26.0066 75.5796 26.4011L41.0859 45.5212C40.3799 45.9126 39.488 45.6558 39.0921 44.9415Z" fill="#D72130"/>
<path id="Path 11" d="M26.3491 23.8387L26.0089 26.7405L54.191 30.0447L55.6962 29.1867L66.6396 4.54333L63.9693 3.35757L53.4627 27.0176L26.3491 23.8387Z" fill="#D72130"/>
<path id="Path 14" d="M61.9552 24.6937L77.1461 25.9912L77.3947 23.0802L62.2039 21.7826L61.9552 24.6937Z" fill="#D72130"/>
<path id="Path 14 Copy" d="M44.4833 32.2954L38.3453 45.9249L41.0093 47.1246L47.1473 33.4952L44.4833 32.2954Z" fill="#D72130"/>
<rect id="Rectangle 30" x="3.54102" y="42.9502" width="21.3632" height="2.92166" transform="rotate(-29 3.54102 42.9502)" fill="#D72130"/>
<path id="Rectangle 30 Copy" fill-rule="evenodd" clip-rule="evenodd" d="M11.2344 47.0371L25.7669 38.9816L27.1834 41.5369L12.6508 49.5925L11.2344 47.0371Z" fill="#D72130"/>
<path id="Rectangle 30 Copy 2" fill-rule="evenodd" clip-rule="evenodd" d="M18.9277 51.123L29.3081 45.3691L30.7246 47.9244L20.3442 53.6784L18.9277 51.123Z" fill="#D72130"/>
</g>
</g>
</g>
</g>
</svg>
